<?xml version="1.0" encoding="UTF-8" standalone="no"?>
<!DOCTYPE svg PUBLIC "-//W3C//DTD SVG 1.1//EN" "http://www.w3.org/Graphics/SVG/1.1/DTD/svg11.dtd">
<svg version="1.1" xmlns="http://www.w3.org/2000/svg" xmlns:xlink="http://www.w3.org/1999/xlink" preserveAspectRatio="xMidYMid meet" viewBox="332.49375999999995 74.32416 152.73984000000007 152.73984000000002" width="100" height="100"><defs><path d="M468.15 75.32C477.54 75.32 482.23 80.02 482.23 89.4C482.23 161.75 482.23 201.95 482.23 209.98C482.23 219.37 477.54 224.06 468.15 224.06C395.81 224.06 355.61 224.06 347.57 224.06C338.19 224.06 333.49 219.37 333.49 209.98C333.49 137.64 333.49 97.44 333.49 89.4C333.49 80.02 338.19 75.32 347.57 75.32C419.92 75.32 460.11 75.32 468.15 75.32Z" id="bjL0Yucul"></path><path d="M446.45 193.57L369.28 193.57C369.28 191.51 369.28 190.37 369.28 190.14C369.28 189 370.21 188.08 371.35 188.08C371.58 188.08 372.72 188.08 374.79 188.08C374.79 151.07 374.79 130.5 374.79 126.39C374.79 124.12 376.64 122.28 378.93 122.28C379.94 122.28 384.99 122.28 394.08 122.28C394.08 114.87 394.08 110.76 394.08 109.94C394.08 107.67 395.93 105.83 398.22 105.83C400.15 105.83 415.58 105.83 417.51 105.83C419.79 105.83 421.64 107.67 421.64 109.94C421.64 110.76 421.64 114.87 421.64 122.28C430.74 122.28 435.79 122.28 436.8 122.28C439.09 122.28 440.94 124.12 440.94 126.39C440.94 130.5 440.94 151.07 440.94 188.08C443 188.08 444.15 188.08 444.38 188.08C445.52 188.08 446.45 189 446.45 190.14C446.45 190.59 446.45 191.74 446.45 193.57ZM415.44 138.73C414.3 138.73 413.38 139.65 413.38 140.78C413.38 141.47 413.38 146.95 413.38 147.64C413.38 148.77 414.3 149.69 415.44 149.69C416.13 149.69 421.64 149.69 422.33 149.69C423.48 149.69 424.4 148.77 424.4 147.64C424.4 146.95 424.4 141.47 424.4 140.78C424.4 139.65 423.48 138.73 422.33 138.73C420.96 138.73 416.13 138.73 415.44 138.73ZM400.29 149.69C401.43 149.69 402.35 148.77 402.35 147.64C402.35 146.95 402.35 141.47 402.35 140.78C402.35 139.65 401.43 138.73 400.29 138.73C399.6 138.73 394.08 138.73 393.4 138.73C392.25 138.73 391.33 139.65 391.33 140.78C391.33 141.47 391.33 146.95 391.33 147.64C391.33 148.77 392.25 149.69 393.4 149.69C394.77 149.69 399.6 149.69 400.29 149.69ZM404.42 171.63C403.28 171.63 402.35 172.55 402.35 173.69C402.35 174.65 402.35 179.44 402.35 188.08L413.38 188.08C413.38 179.44 413.38 174.65 413.38 173.69C413.38 172.55 412.45 171.63 411.31 171.63C409.93 171.63 405.11 171.63 404.42 171.63ZM415.44 155.18C414.3 155.18 413.38 156.1 413.38 157.24C413.38 157.92 413.38 163.4 413.38 164.09C413.38 165.22 414.3 166.15 415.44 166.15C416.13 166.15 421.64 166.15 422.33 166.15C423.48 166.15 424.4 165.22 424.4 164.09C424.4 163.4 424.4 157.92 424.4 157.24C424.4 156.1 423.48 155.18 422.33 155.18C420.96 155.18 416.13 155.18 415.44 155.18ZM400.29 155.18C399.6 155.18 394.08 155.18 393.4 155.18C392.25 155.18 391.33 156.1 391.33 157.24C391.33 157.92 391.33 163.4 391.33 164.09C391.33 165.22 392.25 166.15 393.4 166.15C394.08 166.15 399.6 166.15 400.29 166.15C401.43 166.15 402.35 165.22 402.35 164.09C402.35 163.63 402.35 161.35 402.35 157.24C401.74 155.86 401.05 155.18 400.29 155.18ZM405.11 122.28C405.11 124.95 405.11 126.43 405.11 126.73C405.11 127 405.22 127.27 405.41 127.46C405.61 127.65 405.87 127.76 406.14 127.76C406.49 127.76 409.24 127.76 409.59 127.76C409.86 127.76 410.12 127.65 410.32 127.46C410.51 127.27 410.62 127 410.62 126.73C410.62 126.43 410.62 124.95 410.62 122.28C413.31 122.28 414.8 122.28 415.1 122.28C415.37 122.28 415.64 122.17 415.83 121.98C416.02 121.78 416.13 121.52 416.13 121.25C416.13 120.91 416.13 118.16 416.13 117.82C416.13 117.55 416.02 117.29 415.83 117.09C415.64 116.9 415.37 116.79 415.1 116.79C414.8 116.79 413.31 116.79 410.62 116.79C410.62 114.12 410.62 112.63 410.62 112.34C410.62 112.06 410.51 111.8 410.32 111.61C410.12 111.42 409.86 111.31 409.59 111.31C409.24 111.31 406.49 111.31 406.14 111.31C405.87 111.31 405.61 111.42 405.41 111.61C405.22 111.8 405.11 112.06 405.11 112.34C405.11 112.63 405.11 114.12 405.11 116.79C402.42 116.79 400.93 116.79 400.63 116.79C400.36 116.79 400.09 116.9 399.9 117.09C399.71 117.29 399.6 117.55 399.6 117.82C399.6 118.16 399.6 120.91 399.6 121.25C399.6 121.52 399.71 121.78 399.9 121.98C400.09 122.17 400.36 122.28 400.63 122.28C401.23 122.28 402.72 122.28 405.11 122.28Z" id="c3CmiibO"></path></defs><g><g><use xlink:href="#bjL0Yucul" opacity="1" fill="#445e6b" fill-opacity="1"></use><g><use xlink:href="#bjL0Yucul" opacity="1" fill-opacity="0" stroke="#000000" stroke-width="1" stroke-opacity="0"></use></g></g><g><use xlink:href="#c3CmiibO" opacity="1" fill="#fde84d" fill-opacity="1"></use><g><use xlink:href="#c3CmiibO" opacity="1" fill-opacity="0" stroke="#000000" stroke-width="1" stroke-opacity="0"></use></g></g></g></svg>