<?xml version="1.0" encoding="UTF-8" standalone="no"?>
<!DOCTYPE svg PUBLIC "-//W3C//DTD SVG 1.1//EN" "http://www.w3.org/Graphics/SVG/1.1/DTD/svg11.dtd">
<svg version="1.1" xmlns="http://www.w3.org/2000/svg" xmlns:xlink="http://www.w3.org/1999/xlink" preserveAspectRatio="xMidYMid meet" viewBox="347.47360000000003 321.85312000000005 152.73983999999996 152.73983999999996" width="100" height="100"><defs><path d="M483.13 322.85C492.52 322.85 497.21 327.55 497.21 336.93C497.21 409.28 497.21 449.47 497.21 457.51C497.21 466.9 492.52 471.59 483.13 471.59C410.79 471.59 370.59 471.59 362.55 471.59C353.17 471.59 348.47 466.9 348.47 457.51C348.47 385.17 348.47 344.97 348.47 336.93C348.47 327.55 353.17 322.85 362.55 322.85C434.9 322.85 475.09 322.85 483.13 322.85Z" id="gBMQvDLNV"></path><path d="M461.43 441.09L384.26 441.09C384.26 439.04 384.26 437.9 384.26 437.67C384.26 436.53 385.19 435.61 386.33 435.61C386.56 435.61 387.7 435.61 389.77 435.61C389.77 398.59 389.77 378.03 389.77 373.92C389.77 371.65 391.62 369.8 393.91 369.8C394.92 369.8 399.97 369.8 409.06 369.8C409.06 362.4 409.06 358.29 409.06 357.47C409.06 355.19 410.91 353.35 413.2 353.35C415.13 353.35 430.56 353.35 432.49 353.35C434.77 353.35 436.62 355.19 436.62 357.47C436.62 358.29 436.62 362.4 436.62 369.8C445.72 369.8 450.77 369.8 451.78 369.8C454.07 369.8 455.92 371.65 455.92 373.92C455.92 378.03 455.92 398.59 455.92 435.61C457.98 435.61 459.13 435.61 459.36 435.61C460.5 435.61 461.43 436.53 461.43 437.67C461.43 438.12 461.43 439.27 461.43 441.09ZM430.42 386.26C429.28 386.26 428.36 387.18 428.36 388.31C428.36 389 428.36 394.48 428.36 395.17C428.36 396.3 429.28 397.22 430.42 397.22C431.11 397.22 436.62 397.22 437.31 397.22C438.46 397.22 439.38 396.3 439.38 395.17C439.38 394.48 439.38 389 439.38 388.31C439.38 387.18 438.46 386.26 437.31 386.26C435.94 386.26 431.11 386.26 430.42 386.26ZM415.27 397.22C416.41 397.22 417.33 396.3 417.33 395.17C417.33 394.48 417.33 389 417.33 388.31C417.33 387.18 416.41 386.26 415.27 386.26C414.58 386.26 409.06 386.26 408.38 386.26C407.23 386.26 406.31 387.18 406.31 388.31C406.31 389 406.31 394.48 406.31 395.17C406.31 396.3 407.23 397.22 408.38 397.22C409.75 397.22 414.58 397.22 415.27 397.22ZM419.4 419.16C418.26 419.16 417.33 420.08 417.33 421.21C417.33 422.17 417.33 426.97 417.33 435.61L428.36 435.61C428.36 426.97 428.36 422.17 428.36 421.21C428.36 420.08 427.43 419.16 426.29 419.16C424.91 419.16 420.09 419.16 419.4 419.16ZM430.42 402.71C429.28 402.71 428.36 403.63 428.36 404.76C428.36 405.45 428.36 410.93 428.36 411.62C428.36 412.75 429.28 413.68 430.42 413.68C431.11 413.68 436.62 413.68 437.31 413.68C438.46 413.68 439.38 412.75 439.38 411.62C439.38 410.93 439.38 405.45 439.38 404.76C439.38 403.63 438.46 402.71 437.31 402.71C435.94 402.71 431.11 402.71 430.42 402.71ZM415.27 402.71C414.58 402.71 409.06 402.71 408.38 402.71C407.23 402.71 406.31 403.63 406.31 404.76C406.31 405.45 406.31 410.93 406.31 411.62C406.31 412.75 407.23 413.68 408.38 413.68C409.06 413.68 414.58 413.68 415.27 413.68C416.41 413.68 417.33 412.75 417.33 411.62C417.33 411.16 417.33 408.88 417.33 404.76C416.72 403.39 416.03 402.71 415.27 402.71ZM420.09 369.8C420.09 372.48 420.09 373.96 420.09 374.26C420.09 374.53 420.2 374.8 420.39 374.99C420.58 375.18 420.85 375.29 421.12 375.29C421.47 375.29 424.22 375.29 424.57 375.29C424.84 375.29 425.1 375.18 425.3 374.99C425.49 374.8 425.6 374.53 425.6 374.26C425.6 373.96 425.6 372.48 425.6 369.8C428.29 369.8 429.78 369.8 430.08 369.8C430.35 369.8 430.62 369.7 430.81 369.5C431 369.31 431.11 369.05 431.11 368.78C431.11 368.43 431.11 365.69 431.11 365.35C431.11 365.08 431 364.82 430.81 364.62C430.62 364.43 430.35 364.32 430.08 364.32C429.78 364.32 428.29 364.32 425.6 364.32C425.6 361.65 425.6 360.16 425.6 359.87C425.6 359.59 425.49 359.33 425.3 359.14C425.1 358.95 424.84 358.84 424.57 358.84C424.22 358.84 421.47 358.84 421.12 358.84C420.85 358.84 420.58 358.95 420.39 359.14C420.2 359.33 420.09 359.59 420.09 359.87C420.09 360.16 420.09 361.65 420.09 364.32C417.4 364.32 415.91 364.32 415.61 364.32C415.34 364.32 415.07 364.43 414.88 364.62C414.69 364.82 414.58 365.08 414.58 365.35C414.58 365.69 414.58 368.43 414.58 368.78C414.58 369.05 414.69 369.31 414.88 369.5C415.07 369.7 415.34 369.8 415.61 369.8C416.21 369.8 417.7 369.8 420.09 369.8Z" id="bxJuVl1pa"></path></defs><g><g><use xlink:href="#gBMQvDLNV" opacity="1" fill="#fde84d" fill-opacity="1"></use><g><use xlink:href="#gBMQvDLNV" opacity="1" fill-opacity="0" stroke="#000000" stroke-width="1" stroke-opacity="0"></use></g></g><g><use xlink:href="#bxJuVl1pa" opacity="1" fill="#445e6b" fill-opacity="1"></use><g><use xlink:href="#bxJuVl1pa" opacity="1" fill-opacity="0" stroke="#000000" stroke-width="1" stroke-opacity="0"></use></g></g></g></svg>