<?xml version="1.0" encoding="UTF-8" standalone="no"?>
<!DOCTYPE svg PUBLIC "-//W3C//DTD SVG 1.1//EN" "http://www.w3.org/Graphics/SVG/1.1/DTD/svg11.dtd">
<svg version="1.1" xmlns="http://www.w3.org/2000/svg" xmlns:xlink="http://www.w3.org/1999/xlink" preserveAspectRatio="xMidYMid meet" viewBox="216.33467626240517 146.40291257167212 209.33064747518975 170.60821875212514" width="205.33" height="166.61"><defs><path d="M222.4 177.84C243.32 120.26 397.97 158.5 419.74 178.09C441.51 197.68 336 315.19 292.66 314C249.32 312.82 201.49 235.41 222.4 177.84Z" id="b2hXrNDVNM"></path><path d="M318.73 222.17C319.22 223.65 319.22 225.13 319.22 227.11C327.12 229.08 329.1 238.46 329.1 243.89C329.1 244.22 329.1 245.87 329.1 248.83L319.22 248.83L319.22 243.89C322.19 243.89 323.83 243.89 324.16 243.89C324.16 243.89 324.16 231.55 316.76 231.55C309.35 231.55 309.35 243.4 309.35 243.89C309.68 243.89 311.32 243.89 314.29 243.89L314.29 248.83L304.41 248.83C304.41 245.87 304.41 244.22 304.41 243.89C304.41 238.46 306.39 228.59 314.29 227.11C314.29 224.14 313.79 221.68 313.3 220.69C312.31 220.19 311.32 219.21 311.32 217.73C311.32 214.76 315.27 215.75 318.24 210.32C318.24 210.32 322.68 198.96 321.2 189.09C320.71 189.09 316.76 189.09 316.26 189.09C316.26 188.1 316.76 187.61 316.76 186.62C316.76 185.63 316.76 185.14 316.26 184.15C316.66 184.15 319.82 184.15 320.21 184.15C318.73 179.21 313.79 174.77 304.41 174.77C295.03 174.77 290.09 179.21 288.12 184.64C288.51 184.64 291.67 184.64 292.07 184.64C292.07 185.63 291.57 186.13 291.57 187.11C291.57 188.1 291.57 188.59 292.07 189.58C291.57 189.58 287.62 189.58 287.13 189.58C286.14 199.46 290.09 210.81 290.09 210.81C293.06 215.75 297.01 214.76 297.01 218.22C297.01 220.69 294.54 221.68 291.57 222.17C290.59 223.16 289.6 225.13 289.6 229.08C289.6 229.67 289.6 234.41 289.6 235.01C292.56 235.99 294.54 238.96 294.54 241.92C294.54 245.38 291.08 248.83 287.13 248.83C283.18 248.83 279.72 245.38 279.72 241.43C279.72 237.97 281.7 235.5 284.66 234.51C284.66 233.92 284.66 229.18 284.66 228.59C284.66 226.12 285.16 224.14 285.65 222.17C282.19 222.66 278.24 224.14 274.79 230.56C271.82 235.99 270.34 253.77 270.34 253.77C277.11 253.77 331.22 253.77 337.99 253.77C338.48 253.77 337 235.99 334.04 230.56C329.1 221.18 324.16 222.66 318.73 222.17ZM304.41 179.71C308.36 179.71 311.82 183.16 311.82 187.11C311.82 191.06 308.36 194.52 304.41 194.52C300.46 194.52 297.01 191.06 297.01 187.11C297.01 183.16 300.46 179.71 304.41 179.71Z" id="coci7ustn"></path><path d="M288.88 243.17C288.41 243.63 287.79 243.89 287.13 243.89C286.48 243.89 285.85 243.63 285.38 243.17C284.92 242.71 284.66 242.08 284.66 241.43C284.66 240.77 284.92 240.14 285.38 239.68C285.85 239.22 286.48 238.96 287.13 238.96C287.79 238.96 288.41 239.22 288.88 239.68C289.34 240.14 289.6 240.77 289.6 241.43C289.6 242.08 289.34 242.71 288.88 243.17Z" id="m2aHdcwtAt"></path></defs><g><g><use xlink:href="#b2hXrNDVNM" opacity="1" fill="#445e6b" fill-opacity="1"></use><g><use xlink:href="#b2hXrNDVNM" opacity="1" fill-opacity="0" stroke="#000000" stroke-width="1" stroke-opacity="0"></use></g></g><g><use xlink:href="#coci7ustn" opacity="1" fill="#fde84d" fill-opacity="1"></use><g><use xlink:href="#coci7ustn" opacity="1" fill-opacity="0" stroke="#000000" stroke-width="1" stroke-opacity="0"></use></g></g><g><use xlink:href="#m2aHdcwtAt" opacity="1" fill="#fde84d" fill-opacity="1"></use><g><use xlink:href="#m2aHdcwtAt" opacity="1" fill-opacity="0" stroke="#000000" stroke-width="1" stroke-opacity="0"></use></g></g></g></svg>