<svg width="28" height="28" viewBox="0 0 28 28" fill="none" xmlns="http://www.w3.org/2000/svg">
<g clip-path="url(#clip0)">
<path d="M26.2881 0.00386686C25.9249 -0.134578 20.0675 3.09242 18.5345 7.10576C17.6276 9.47953 17.2231 11.8175 17.2496 13.4151C16.107 12.8014 14.9777 12.4444 14 12.4444C13.0223 12.4444 11.893 12.8006 10.7505 13.4159C10.7761 11.8175 10.3725 9.47953 9.46556 7.10653C7.93334 3.0932 2.07512 -0.134578 1.7119 0.00386686C1.35801 0.1392 5.03145 12.4825 7.17579 16.2112C5.29278 18.2039 3.8889 20.7363 3.8889 23.1995C3.8889 25.7149 5.16056 27.1973 7.00001 27.8195C8.96856 28.4861 10.8889 27.0884 14 27.0884C17.1111 27.0884 19.0315 28.4869 21 27.8195C22.8395 27.1965 24.1111 25.7149 24.1111 23.1995C24.1111 20.7371 22.7072 18.2039 20.825 16.212C22.9678 12.4825 26.6428 0.1392 26.2881 0.00386686Z" fill="#99AAB5"/>
<path d="M9.87155 13.9393C9.73311 12.7416 9.34266 11.1782 8.73833 9.59623C7.54522 6.47268 4.31588 3.96123 4.03355 4.06856C3.78544 4.16345 6.07677 11.9552 7.75366 15.6287C8.40664 15.0022 9.11556 14.4367 9.87155 13.9393ZM20.2456 15.6287C21.9224 11.9552 24.2138 4.16345 23.9664 4.06934C23.6841 3.96123 20.454 6.47345 19.2609 9.59701C18.6566 11.179 18.2661 12.7416 18.1277 13.9393C18.8837 14.4367 19.5926 15.0022 20.2456 15.6287Z" fill="#F4ABBA"/>
<path d="M19.4444 23.3333C19.4444 25.4816 17.0644 27.2222 14.1291 27.2222C11.1945 27.2222 8.81454 25.4816 8.81454 23.3333C8.81454 21.1851 11.1945 19.4445 14.1291 19.4445C17.0644 19.4445 19.4444 21.1851 19.4444 23.3333Z" fill="#CCD6DD"/>
<path d="M16.3333 23.7829C16.3333 25.9311 16.1482 26.1162 14 26.1162C11.8525 26.1162 11.6667 25.9311 11.6667 23.7829C11.6667 23.0051 16.3333 23.0051 16.3333 23.7829Z" fill="white"/>
<path d="M9.72221 20.0884C10.3665 20.0884 10.8889 19.5661 10.8889 18.9218C10.8889 18.2774 10.3665 17.7551 9.72221 17.7551C9.07788 17.7551 8.55554 18.2774 8.55554 18.9218C8.55554 19.5661 9.07788 20.0884 9.72221 20.0884Z" fill="#292F33"/>
<path d="M18.2778 20.0884C18.9221 20.0884 19.4444 19.5661 19.4444 18.9218C19.4444 18.2774 18.9221 17.7551 18.2778 17.7551C17.6334 17.7551 17.1111 18.2774 17.1111 18.9218C17.1111 19.5661 17.6334 20.0884 18.2778 20.0884Z" fill="#292F33"/>
<path d="M16.3333 20.0885C16.3333 21.3772 14.7778 22.4218 14 22.4218C13.2222 22.4218 11.6667 21.3772 11.6667 20.0885C11.6667 18.7997 16.3333 18.7997 16.3333 20.0885Z" fill="#F4ABBA"/>
</g>
<defs>
<clipPath id="clip0">
<rect width="28" height="28" fill="white"/>
</clipPath>
</defs>
</svg>
