<svg width="28" height="28" viewBox="0 0 28 28" fill="none" xmlns="http://www.w3.org/2000/svg">
<path d="M13.5778 6.39191C17.15 6.39191 20.0375 8.27753 23.1459 13.7528C25.7338 18.3116 25.2394 23.2685 22.4897 24.7888C19.74 26.3091 18.7009 26.0313 17.4803 25.9635C16.345 25.9022 13.7441 20.9694 13.7441 20.9694C13.7441 20.9694 11.3684 25.8803 9.71907 25.8563C9.09782 25.8475 5.7772 25.8978 4.05345 23.7213C2.3297 21.5447 2.41063 17.85 4.05345 14.5644C5.69626 11.2788 9.14157 6.39191 13.5778 6.39191Z" fill="#F2A159"/>
<path d="M25.6506 7.17283C25.7447 9.64033 23.8656 11.1147 21.8312 11.1147C19.7969 11.1147 18.5062 9.34502 18.5062 7.3369C18.5062 5.32877 20.2912 3.76471 22.3256 3.76471C24.36 3.76471 25.5741 5.1669 25.6506 7.17283Z" fill="#F2A159"/>
<path d="M5.16031 10.4169C2.81312 9.65128 2.11094 7.88159 2.73875 5.89972C3.36656 3.91784 5.50594 2.95316 7.42 3.55909C9.33406 4.16503 10.1412 6.29784 9.51344 8.28191C8.88562 10.266 6.92562 10.99 5.16031 10.4169Z" fill="#F2A159"/>
<path d="M8.03468 7.04815C8.03468 8.09158 7.21437 8.81346 6.22781 8.81346C5.24125 8.81346 4.50406 8.00846 4.50406 6.96502C4.50406 5.92158 5.24125 5.07721 6.22781 5.07721C7.50093 5.07721 8.03468 6.0069 8.03468 7.04815Z" fill="#FFA7AA"/>
<path d="M21.9034 9.10662C20.8644 9.01693 20.2147 8.13537 20.3022 7.15318C20.3897 6.17099 21.4091 5.43818 22.4481 5.53006C23.4872 5.62193 24.1106 6.49693 24.0253 7.47912C23.9138 8.74568 22.9425 9.19849 21.9034 9.10662Z" fill="#FFA7AA"/>
<path d="M19.4075 15.1988C19.5081 15.9513 19.3047 16.7388 18.5609 16.7541C17.7822 16.7694 17.5131 16.0979 17.4366 15.3432C17.36 14.5885 17.675 14.1532 18.2372 14.07C18.9372 13.9672 19.3266 14.5841 19.4075 15.1988Z" fill="#2E3030"/>
<path d="M10.5547 15.2753C10.5809 16.0344 10.2725 16.8612 9.47186 16.8C8.6953 16.7409 8.46561 15.8156 8.56842 15.0128C8.66467 14.2603 8.98624 13.9912 9.5528 13.965C10.2594 13.9344 10.535 14.6562 10.5547 15.2753Z" fill="#2E2D31"/>
<path d="M13.8753 24.5613C13.8753 24.5613 15.8463 25.8541 17.5088 25.9788C19.1713 26.1035 21.1116 25.456 21.2341 23.0235C21.3741 20.2519 19.2938 18.7425 18.7709 18.3422C18.4603 18.1038 16.8613 16.9882 16.8613 16.9882C16.8613 16.9882 16.4303 13.5997 16.2772 12.4929C16.1241 11.3838 16.0038 9.66005 13.8753 9.62942C11.8431 9.5988 11.5916 11.6922 11.5653 12.3704C11.5347 13.171 11.2263 17.021 11.2263 17.021C11.2263 17.021 10.0647 17.791 9.25532 18.4079C8.54657 18.946 6.71782 20.3175 6.7922 22.6582C6.85345 24.6291 7.90126 25.9219 10.1172 25.8607C12.7706 25.7819 13.8753 24.5613 13.8753 24.5613Z" fill="#FFD2B1"/>
<path d="M12.5606 21.8421C12.5606 21.8421 12.3987 23.859 13.0944 24.1828C13.6697 24.4496 13.9781 23.6074 13.9781 23.6074C13.9781 23.6074 14.1706 24.0953 14.6344 24.1828C15.5181 24.3468 15.3125 21.6562 15.3125 21.6562L13.9978 20.9584L12.5606 21.8421Z" fill="#FFFEFD"/>
<path d="M13.1053 20.6609C13.1053 20.3722 12.705 20.23 12.3244 19.9741C12.0881 19.8144 11.7906 19.6153 11.8737 19.2872C11.9569 18.9591 12.5606 18.9284 13.7725 18.9066C14.9844 18.8869 15.8353 18.9984 15.7937 19.3266C15.7522 19.6547 15.3825 19.88 15.1069 20.0856C14.9778 20.1819 14.5228 20.4356 14.5425 20.6194C14.5622 20.8031 15.0959 21.2297 15.5269 21.2363C16.2444 21.2472 16.5747 20.825 16.7387 20.6413C16.9028 20.4575 17.1084 20.2519 17.3753 20.3744C17.6422 20.4969 17.4059 21.2166 16.8722 21.7088C16.3384 22.2009 15.3847 22.3256 14.7678 22.0588C14.1509 21.7919 13.8753 21.4113 13.8753 21.4113C13.8753 21.4113 13.2081 22.365 12.1209 22.2009C11.2962 22.0763 10.7669 21.5447 10.5197 21.1138C10.2725 20.6828 10.3512 20.4269 10.5612 20.3963C10.8281 20.3547 10.9922 20.6631 11.3006 20.8075C11.609 20.9519 11.8453 21.1247 12.3375 21.105C12.8275 21.0809 13.1053 20.8666 13.1053 20.6609Z" fill="#2F302D"/>
<path d="M5.57155 23.3887C5.47093 23.3887 5.37249 23.3406 5.31343 23.2487C5.22155 23.1065 5.26093 22.9162 5.40312 22.8243C5.45124 22.7937 6.59093 22.0543 7.22968 21.7043C7.86624 21.3543 8.97749 20.7593 8.97749 20.7593C8.97749 20.7593 9.21812 20.5887 9.3953 20.849C9.57249 21.1115 9.26843 21.2997 9.26843 21.2997C9.26843 21.2997 8.16155 21.8947 7.52499 22.2425C6.90593 22.5815 5.74874 23.3318 5.7378 23.3384C5.6853 23.3734 5.62843 23.3887 5.57155 23.3887Z" fill="#5F646D"/>
<path d="M6.84032 24.9222C6.76813 24.9222 6.69595 24.8981 6.63907 24.8456C6.5122 24.7341 6.49907 24.5416 6.61063 24.4125C6.6347 24.3863 7.20563 23.7344 7.84657 23.1547C8.48313 22.5794 9.08032 22.0456 9.08032 22.0456C9.2072 21.9319 9.3997 21.9428 9.51345 22.0697C9.6272 22.1966 9.61626 22.3891 9.48938 22.5028C9.48938 22.5028 8.89438 23.0366 8.25782 23.6119C7.64313 24.1675 7.07657 24.8106 7.0722 24.8172C7.01095 24.8872 6.92563 24.9222 6.84032 24.9222Z" fill="#5F646D"/>
<path d="M22.4438 23.5659C22.3716 23.5659 22.2972 23.5397 22.2403 23.4872C22.2381 23.485 21.8422 23.1394 20.6216 22.3912C19.3813 21.63 18.6463 21.2822 18.6397 21.2778C18.5695 21.2414 18.5161 21.1792 18.4907 21.1042C18.4654 21.0293 18.47 20.9475 18.5037 20.8759C18.5374 20.8043 18.5974 20.7485 18.6713 20.7203C18.7452 20.692 18.8272 20.6935 18.9 20.7244C18.9306 20.7397 19.6678 21.0897 20.941 21.8684C22.2228 22.6537 22.6319 23.0147 22.6472 23.03C22.7741 23.1437 22.7828 23.3362 22.6713 23.4631C22.61 23.5331 22.5269 23.5659 22.4438 23.5659Z" fill="#5F646D"/>
<path d="M21.0481 24.7778C20.9672 24.7778 20.8862 24.745 20.825 24.6815C20.8184 24.675 20.1469 23.964 19.4665 23.3428C18.7994 22.7347 18.06 22.2731 18.0534 22.2687C17.9091 22.179 17.8653 21.9909 17.955 21.8465C18.0447 21.7022 18.2328 21.6584 18.3772 21.7481C18.41 21.7678 19.169 22.2425 19.88 22.89C20.5778 23.5265 21.245 24.2309 21.2712 24.2615C21.3872 24.384 21.3806 24.5787 21.2581 24.6947C21.199 24.7515 21.1225 24.7778 21.0481 24.7778Z" fill="#5F646D"/>
</svg>
