<svg width="28" height="28" viewBox="0 0 28 28" fill="none" xmlns="http://www.w3.org/2000/svg">
<path d="M6.91254 22.7935C3.93754 20.8685 2.75629 13.3873 3.71879 10.0185C4.41879 7.48102 7.13129 3.76227 9.58129 2.79977C11.6375 1.96852 16.3625 1.96852 18.375 2.79977C20.825 3.76227 23.5375 7.48102 24.2375 10.0185C25.2 13.431 24.4563 20.8685 21.525 22.7935C15.3125 26.8185 13.125 26.8185 6.91254 22.7935Z" fill="#F5D1AC"/>
<path d="M2.23122 10.8063C3.80622 14.2625 4.19997 14.3938 5.68746 10.2813C6.47496 8.09375 5.90621 6.78125 6.86871 5.38125C7.39371 4.59375 8.57496 3.28125 8.57496 3.28125C8.57496 3.28125 -0.743783 4.24375 2.23122 10.8063Z" fill="#423223"/>
<path d="M6.2125 3.15021C3.84999 4.68146 -1.18126 4.06896 1.79374 10.5877C3.36874 14.044 3.76249 14.1752 5.24999 10.0627C6.0375 7.87521 5.46874 6.56271 6.43125 5.16271C6.95625 4.37521 8.575 3.28146 8.575 3.28146C8.575 3.28146 7.83125 2.10021 6.2125 3.15021Z" fill="#947151"/>
<path d="M25.7688 10.7627C24.1938 14.219 23.8 14.3502 22.3125 10.2377C21.525 8.05023 22.0938 6.73773 21.1313 5.33773C20.6063 4.55023 19.425 3.23773 19.425 3.23773C19.425 3.23773 28.7438 4.24398 25.7688 10.7627Z" fill="#423223"/>
<path d="M21.7875 3.15021C24.15 4.68146 29.1813 4.06896 26.2063 10.5877C24.6313 14.044 24.2375 14.1752 22.75 10.0627C21.9625 7.87521 22.5313 6.56271 21.5688 5.16271C21.0438 4.37521 19.425 3.28146 19.425 3.28146C19.425 3.28146 20.1688 2.10021 21.7875 3.15021Z" fill="#947151"/>
<path d="M7.74385 16.0562C9.19359 16.0562 10.3688 14.8809 10.3688 13.4312C10.3688 11.9814 9.19359 10.8062 7.74385 10.8062C6.2941 10.8062 5.11885 11.9814 5.11885 13.4312C5.11885 14.8809 6.2941 16.0562 7.74385 16.0562Z" fill="white"/>
<path d="M7.0876 15.3999C8.17491 15.3999 9.05635 14.5185 9.05635 13.4312C9.05635 12.3439 8.17491 11.4624 7.0876 11.4624C6.00029 11.4624 5.11885 12.3439 5.11885 13.4312C5.11885 14.5185 6.00029 15.3999 7.0876 15.3999Z" fill="#3E4347"/>
<path d="M20.2562 16.0562C21.7059 16.0562 22.8812 14.8809 22.8812 13.4312C22.8812 11.9814 21.7059 10.8062 20.2562 10.8062C18.8064 10.8062 17.6312 11.9814 17.6312 13.4312C17.6312 14.8809 18.8064 16.0562 20.2562 16.0562Z" fill="white"/>
<path d="M20.9124 15.3999C21.9997 15.3999 22.8812 14.5185 22.8812 13.4312C22.8812 12.3439 21.9997 11.4624 20.9124 11.4624C19.8251 11.4624 18.9437 12.3439 18.9437 13.4312C18.9437 14.5185 19.8251 15.3999 20.9124 15.3999Z" fill="#3E4347"/>
<path d="M9.49385 21.35L11.5063 23.4938C12.7313 24.7625 15.2251 24.7625 16.4501 23.4938L18.5063 21.35L16.4063 19.1625H11.5938L9.49385 21.35Z" fill="#7D644B"/>
<path d="M14.0001 17.3248C14.0001 17.3248 11.8563 20.3873 12.1188 21.831C12.4688 23.931 15.4876 23.931 15.8813 21.831C16.1438 20.3873 14.0001 17.3248 14.0001 17.3248Z" fill="#F15A61"/>
<path d="M14 22.6187L14.4813 19.6875H13.5188L14 22.6187Z" fill="#BA454B"/>
<path d="M11.8125 18.1562H16.1875V20.1687H11.8125V18.1562Z" fill="#423223"/>
<path d="M20.9126 18.6373L17.8063 15.356C15.9251 13.3873 12.0751 13.3873 10.1938 15.356L7.0876 18.6373C6.2126 19.5561 6.2126 21.0873 7.0876 22.0061C7.9626 22.9248 9.40635 22.9248 10.2813 22.0061L13.3876 18.7248C13.6938 18.4186 14.2626 18.4186 14.5688 18.7248L17.6751 22.0061C18.5501 22.9248 19.9938 22.9248 20.8688 22.0061C21.8313 21.0873 21.8313 19.5561 20.9126 18.6373Z" fill="#947151"/>
<path d="M11.4187 15.6185C11.4187 14.481 12.5562 14.2623 14 14.2623C15.4437 14.2623 16.5812 14.481 16.5812 15.6185C16.5812 16.5373 14.525 17.3248 14 17.3248C13.475 17.3248 11.4187 16.4935 11.4187 15.6185Z" fill="#3E4347"/>
<path d="M10.1981 17.0676L10.6308 16.6336L11.0644 17.0663L10.6317 17.4999L10.1981 17.0676Z" fill="#3E4347"/>
<path d="M9.1643 18.2922L9.59699 17.8586L10.0301 18.2913L9.59786 18.7245L9.1643 18.2922Z" fill="#3E4347"/>
<path d="M10.5547 18.7085L10.9874 18.2749L11.4209 18.7072L10.9887 19.1411L10.5547 18.7085Z" fill="#3E4347"/>
<path d="M16.9326 17.0572L17.3666 16.625L17.7989 17.0586L17.3653 17.4912L16.9326 17.0572Z" fill="#3E4347"/>
<path d="M17.9935 18.2705L18.4275 17.8378L18.8597 18.2714L18.4261 18.7041L17.9935 18.2705Z" fill="#3E4347"/>
<path d="M16.6018 18.7296L17.0354 18.2973L17.468 18.7305L17.0345 19.1636L16.6018 18.7296Z" fill="#3E4347"/>
</svg>
