<?xml version="1.0" encoding="utf-8"?>
<svg viewBox="244.238 251.666 19.998 11.922" xmlns="http://www.w3.org/2000/svg">
  <g id="g-1" transform="matrix(1, 0, 0, 1, 244.237274, 247.627106)">
    <path style="stroke: none; fill-rule: nonzero; fill-opacity: 1; fill: rgb(68, 94, 107);" d="M 10 4.039062 C 6.179688 4.039062 2.714844 6.128906 0.15625 9.527344 C -0.0507812 9.804688 -0.0507812 10.191406 0.15625 10.46875 C 2.714844 13.871094 6.179688 15.960938 10 15.960938 C 13.820312 15.960938 17.285156 13.871094 19.84375 10.472656 C 20.050781 10.195312 20.050781 9.808594 19.84375 9.53125 C 17.285156 6.128906 13.820312 4.039062 10 4.039062 Z M 10.273438 14.199219 C 7.738281 14.355469 5.644531 12.265625 5.800781 9.726562 C 5.933594 7.632812 7.632812 5.933594 9.726562 5.800781 C 12.261719 5.644531 14.355469 7.734375 14.199219 10.273438 C 14.0625 12.363281 12.363281 14.0625 10.273438 14.199219 Z M 10.148438 12.257812 C 8.78125 12.34375 7.652344 11.21875 7.742188 9.851562 C 7.8125 8.722656 8.726562 7.8125 9.855469 7.738281 C 11.222656 7.652344 12.351562 8.777344 12.261719 10.144531 C 12.1875 11.277344 11.273438 12.1875 10.148438 12.257812 Z M 10.148438 12.257812 "/>
  </g>
</svg>