<svg width="24" height="24" viewBox="0 0 24 24" fill="none" xmlns="http://www.w3.org/2000/svg">
<path d="M21.75 5.25H18V3.9375C18 3.83437 17.9156 3.75 17.8125 3.75H16.5C16.3969 3.75 16.3125 3.83437 16.3125 3.9375V5.25H12.8438V3.9375C12.8438 3.83437 12.7594 3.75 12.6562 3.75H11.3438C11.2406 3.75 11.1562 3.83437 11.1562 3.9375V5.25H7.6875V3.9375C7.6875 3.83437 7.60313 3.75 7.5 3.75H6.1875C6.08437 3.75 6 3.83437 6 3.9375V5.25H2.25C1.83516 5.25 1.5 5.58516 1.5 6V19.5C1.5 19.9148 1.83516 20.25 2.25 20.25H21.75C22.1648 20.25 22.5 19.9148 22.5 19.5V6C22.5 5.58516 22.1648 5.25 21.75 5.25ZM9.9375 16.125C9.9375 16.2281 9.85312 16.3125 9.75 16.3125H5.4375C5.33437 16.3125 5.25 16.2281 5.25 16.125V15C5.25 14.8969 5.33437 14.8125 5.4375 14.8125H9.75C9.85312 14.8125 9.9375 14.8969 9.9375 15V16.125ZM9.9375 12.9375C9.9375 13.0406 9.85312 13.125 9.75 13.125H5.4375C5.33437 13.125 5.25 13.0406 5.25 12.9375V11.8125C5.25 11.7094 5.33437 11.625 5.4375 11.625H9.75C9.85312 11.625 9.9375 11.7094 9.9375 11.8125V12.9375ZM18.7148 10.7977L14.8477 16.1578C14.8131 16.2057 14.7677 16.2447 14.7151 16.2717C14.6626 16.2986 14.6044 16.3126 14.5453 16.3126C14.4863 16.3126 14.428 16.2986 14.3755 16.2717C14.3229 16.2447 14.2775 16.2057 14.243 16.1578L11.5664 12.45C11.4773 12.3258 11.5664 12.1523 11.7188 12.1523H13.0055C13.125 12.1523 13.2375 12.2109 13.3078 12.307L14.5453 14.0203L16.9758 10.6523C17.0461 10.5539 17.1586 10.4977 17.2781 10.4977H18.5625C18.7148 10.5 18.8039 10.6734 18.7148 10.7977Z" fill="#445E6B"/>
</svg>
