<?xml version="1.0" encoding="UTF-8" standalone="no"?>
<!DOCTYPE svg PUBLIC "-//W3C//DTD SVG 1.1//EN" "http://www.w3.org/Graphics/SVG/1.1/DTD/svg11.dtd">
<svg version="1.1" xmlns="http://www.w3.org/2000/svg" xmlns:xlink="http://www.w3.org/1999/xlink" preserveAspectRatio="xMidYMid meet" viewBox="15.049224828425558 42.38252181052046 211.0072718198225 171.44392693828854" width="207.01" height="167.44"><defs><path d="M192.32 201.06C147.56 242.87 27.1 138.62 16.58 111.29C6.07 83.95 153.41 27.11 191.5 47.83C229.58 68.56 237.09 159.24 192.32 201.06Z" id="b2tvvEnG7t"></path><path d="M181.29 148.17L181.29 155.58L99.71 155.58L99.71 148.17L107.13 148.17C107.12 110.34 107.12 89.33 107.13 85.12C107.13 84.14 107.52 83.2 108.21 82.5C108.91 81.81 109.85 81.42 110.83 81.42C116.77 81.42 164.23 81.42 170.17 81.42C171.15 81.42 172.09 81.81 172.79 82.5C173.48 83.2 173.88 84.14 173.88 85.12C173.88 89.33 173.88 110.34 173.88 148.17L181.29 148.17ZM129.38 103.67L129.38 111.08L136.79 111.08L136.79 118.5L144.21 118.5L144.21 111.08L151.63 111.08L151.63 103.67L144.21 103.67L144.21 96.25L136.79 96.25L136.79 103.67L129.38 103.67ZM155.33 148.17L155.33 125.92L125.67 125.92L125.67 148.17L133.08 148.17L133.08 133.33L147.92 133.33L147.92 148.17L155.33 148.17Z" id="b2RexXXCwN"></path></defs><g><g><use xlink:href="#b2tvvEnG7t" opacity="1" fill="#445e6b" fill-opacity="1"></use><g><use xlink:href="#b2tvvEnG7t" opacity="1" fill-opacity="0" stroke="#000000" stroke-width="1" stroke-opacity="0"></use></g></g><g><use xlink:href="#b2RexXXCwN" opacity="1" fill="#fde84d" fill-opacity="1"></use><g><use xlink:href="#b2RexXXCwN" opacity="1" fill-opacity="0" stroke="#000000" stroke-width="1" stroke-opacity="0"></use></g></g></g></svg>