<?xml version="1.0" encoding="UTF-8" standalone="no"?>
<!DOCTYPE svg PUBLIC "-//W3C//DTD SVG 1.1//EN" "http://www.w3.org/Graphics/SVG/1.1/DTD/svg11.dtd">
<svg version="1.1" xmlns="http://www.w3.org/2000/svg" xmlns:xlink="http://www.w3.org/1999/xlink" preserveAspectRatio="xMidYMid meet" viewBox="-0.9999889771886874 -1.0000048254710885 196.00033312648625 180.99990667441529" width="192" height="177"><defs><path d="M78.4 1.21C137.52 -14.85 195.33 133.6 191.85 162.68C188.37 191.76 31.55 173.19 7.55 137.07C-16.44 100.96 19.29 17.27 78.4 1.21Z" id="e2QHmzo5bM"></path><path d="M122.38 77.25C122.38 73.34 119.2 70.17 115.29 70.17C114.82 70.17 112.46 70.17 108.21 70.17L108.21 63.08L101.13 63.08L101.13 70.17L79.88 70.17L79.88 63.08L72.79 63.08L72.79 70.17C68.54 70.17 66.18 70.17 65.71 70.17C61.8 70.17 58.63 73.34 58.63 77.25C58.63 82.21 58.63 121.87 58.63 126.83C58.63 130.74 61.8 133.92 65.71 133.92C70.67 133.92 110.33 133.92 115.29 133.92C119.2 133.92 122.38 130.74 122.38 126.83C122.38 116.92 122.38 82.21 122.38 77.25ZM72.79 119.75L72.79 112.67L79.88 112.67L79.88 119.75L72.79 119.75ZM72.79 105.58L72.79 98.5L79.88 98.5L79.88 105.58L72.79 105.58ZM86.96 119.75L86.96 112.67L94.04 112.67L94.04 119.75L86.96 119.75ZM86.96 105.58L86.96 98.5L94.04 98.5L94.04 105.58L86.96 105.58ZM101.13 119.75L101.13 112.67L108.21 112.67L108.21 119.75L101.13 119.75ZM101.13 105.58L101.13 98.5L108.21 98.5L108.21 105.58L101.13 105.58ZM65.71 87.88L65.71 80.79L115.29 80.79L115.29 87.88L65.71 87.88Z" id="a7wjYryz1p"></path></defs><g><g><use xlink:href="#e2QHmzo5bM" opacity="1" fill="#445e6b" fill-opacity="1"></use><g><use xlink:href="#e2QHmzo5bM" opacity="1" fill-opacity="0" stroke="#000000" stroke-width="1" stroke-opacity="0"></use></g></g><g><use xlink:href="#a7wjYryz1p" opacity="1" fill="#fde84d" fill-opacity="1"></use><g><use xlink:href="#a7wjYryz1p" opacity="1" fill-opacity="0" stroke="#000000" stroke-width="1" stroke-opacity="0"></use></g></g></g></svg>