<?xml version="1.0" encoding="utf-8"?>
<svg viewBox="205.212 225.593 15 20" xmlns="http://www.w3.org/2000/svg">
  <g id="g-2" transform="matrix(1, 0, 0, 1, 202.711838, 225.593201)">
    <path style="stroke: none; fill-rule: nonzero; fill-opacity: 1; fill: rgb(68, 94, 107);" d="M 15.625 7.5 L 15 7.5 L 15 5 C 15 2.242188 12.757812 0 10 0 C 7.242188 0 5 2.242188 5 5 L 5 7.5 L 4.375 7.5 C 3.339844 7.5 2.5 8.339844 2.5 9.375 L 2.5 18.125 C 2.5 19.160156 3.339844 20 4.375 20 L 15.625 20 C 16.660156 20 17.5 19.160156 17.5 18.125 L 17.5 9.375 C 17.5 8.339844 16.660156 7.5 15.625 7.5 Z M 6.667969 5 C 6.667969 3.160156 8.160156 1.667969 10 1.667969 C 11.839844 1.667969 13.332031 3.160156 13.332031 5 L 13.332031 7.5 L 6.667969 7.5 Z M 6.667969 5 "/>
  </g>
</svg>