<?xml version="1.0" encoding="utf-8"?>
<svg viewBox="362.034 227.714 20 14.063" xmlns="http://www.w3.org/2000/svg">
  <g id="g-3" transform="matrix(1, 0, 0, 1, 362.033875, 224.745743)">
    <path style="stroke: none; fill-rule: nonzero; fill-opacity: 1; fill: rgb(68, 94, 107);" d="M 19.824219 3.972656 L 13.757812 10 L 19.824219 16.027344 C 19.933594 15.796875 20 15.542969 20 15.273438 L 20 4.726562 C 20 4.457031 19.933594 4.203125 19.824219 3.972656 Z M 19.824219 3.972656 "/>
    <path style="stroke: none; fill-rule: nonzero; fill-opacity: 1; fill: rgb(68, 94, 107);" d="M 18.242188 2.96875 L 1.757812 2.96875 C 1.488281 2.96875 1.234375 3.035156 1.003906 3.144531 L 8.757812 10.859375 C 9.441406 11.542969 10.558594 11.542969 11.242188 10.859375 L 18.996094 3.144531 C 18.765625 3.035156 18.511719 2.96875 18.242188 2.96875 Z M 18.242188 2.96875 "/>
    <path style="stroke: none; fill-rule: nonzero; fill-opacity: 1; fill: rgb(68, 94, 107);" d="M 0.175781 3.972656 C 0.0664062 4.203125 0 4.457031 0 4.726562 L 0 15.273438 C 0 15.542969 0.0664062 15.796875 0.175781 16.027344 L 6.242188 10 Z M 0.175781 3.972656 "/>
    <path style="stroke: none; fill-rule: nonzero; fill-opacity: 1; fill: rgb(68, 94, 107);" d="M 12.929688 10.828125 L 12.070312 11.6875 C 10.929688 12.828125 9.070312 12.828125 7.929688 11.6875 L 7.070312 10.828125 L 1.003906 16.855469 C 1.234375 16.964844 1.488281 17.03125 1.757812 17.03125 L 18.242188 17.03125 C 18.511719 17.03125 18.765625 16.964844 18.996094 16.855469 Z M 12.929688 10.828125 "/>
  </g>
</svg>