<svg width="24" height="24" viewBox="0 0 24 24" fill="none" xmlns="http://www.w3.org/2000/svg">
<rect width="24" height="24" fill="url(#paint0_linear)"/>
<path d="M4.50024 12.0001C5.88096 12.0001 7.00024 10.8808 7.00024 9.50012C7.00024 8.11941 5.88096 7.00012 4.50024 7.00012C3.11953 7.00012 2.00024 8.11941 2.00024 9.50012C2.00024 10.8808 3.11953 12.0001 4.50024 12.0001Z" fill="#445E6B"/>
<path d="M9.00024 8C10.381 8 11.5002 6.88071 11.5002 5.5C11.5002 4.11929 10.381 3 9.00024 3C7.61953 3 6.50024 4.11929 6.50024 5.5C6.50024 6.88071 7.61953 8 9.00024 8Z" fill="#445E6B"/>
<path d="M15.0002 8C16.381 8 17.5002 6.88071 17.5002 5.5C17.5002 4.11929 16.381 3 15.0002 3C13.6195 3 12.5002 4.11929 12.5002 5.5C12.5002 6.88071 13.6195 8 15.0002 8Z" fill="#445E6B"/>
<path d="M19.5002 12.0001C20.881 12.0001 22.0002 10.8808 22.0002 9.50012C22.0002 8.11941 20.881 7.00012 19.5002 7.00012C18.1195 7.00012 17.0002 8.11941 17.0002 9.50012C17.0002 10.8808 18.1195 12.0001 19.5002 12.0001Z" fill="#445E6B"/>
<path d="M17.3399 14.86C16.4699 13.84 15.7399 12.97 14.8599 11.95C14.3999 11.41 13.8099 10.87 13.1099 10.63C12.9999 10.59 12.8899 10.56 12.7799 10.54C12.5299 10.5 12.2599 10.5 11.9999 10.5C11.7399 10.5 11.4699 10.5 11.2099 10.55C11.0999 10.57 10.9899 10.6 10.8799 10.64C10.1799 10.88 9.5999 11.42 9.1299 11.96C8.2599 12.98 7.5299 13.85 6.6499 14.87C5.3399 16.18 3.7299 17.63 4.0299 19.66C4.3199 20.68 5.0499 21.69 6.3599 21.98C7.0899 22.13 9.4199 21.54 11.8999 21.54H12.0799C14.5599 21.54 16.8899 22.12 17.6199 21.98C18.9299 21.69 19.6599 20.67 19.9499 19.66C20.2599 17.62 18.6499 16.17 17.3399 14.86Z" fill="#445E6B"/>
<defs>
<linearGradient id="paint0_linear" x1="12" y1="0" x2="12" y2="24" gradientUnits="userSpaceOnUse">
<stop stop-color="white"/>
<stop offset="1" stop-color="white" stop-opacity="0"/>
</linearGradient>
</defs>
</svg>
