<?xml version="1.0" encoding="UTF-8"?>
<svg xmlns="http://www.w3.org/2000/svg" xmlns:xlink="http://www.w3.org/1999/xlink" width="20pt" height="20pt" viewBox="0 0 20 20" version="1.1">
<g id="surface1">
<path style=" stroke:none;fill-rule:nonzero;fill:rgb(26.666667%,36.862745%,41.960784%);fill-opacity:1;" d="M 19.472656 14.679688 L 16.675781 11.886719 C 15.679688 10.890625 13.980469 11.289062 13.582031 12.585938 C 13.28125 13.480469 12.28125 13.980469 11.382812 13.78125 C 9.386719 13.28125 6.691406 10.691406 6.191406 8.597656 C 5.890625 7.699219 6.492188 6.703125 7.390625 6.40625 C 8.6875 6.003906 9.085938 4.3125 8.089844 3.3125 L 5.292969 0.523438 C 4.492188 -0.175781 3.292969 -0.175781 2.59375 0.523438 L 0.699219 2.417969 C -1.199219 4.410156 0.898438 9.695312 5.589844 14.378906 C 10.285156 19.0625 15.578125 21.257812 17.578125 19.261719 L 19.472656 17.371094 C 20.171875 16.570312 20.171875 15.375 19.472656 14.679688 Z M 19.472656 14.679688 "/>
</g>
</svg>
