<?xml version="1.0" encoding="UTF-8" standalone="no"?>
<!DOCTYPE svg PUBLIC "-//W3C//DTD SVG 1.1//EN" "http://www.w3.org/Graphics/SVG/1.1/DTD/svg11.dtd">
<svg version="1.1" xmlns="http://www.w3.org/2000/svg" xmlns:xlink="http://www.w3.org/1999/xlink" preserveAspectRatio="xMidYMid meet" viewBox="95.88448000000001 299.86400000000003 152.73984000000002 152.73984000000002" width="100" height="100"><defs><path d="M231.54 300.86C240.93 300.86 245.62 305.56 245.62 314.94C245.62 387.29 245.62 427.49 245.62 435.52C245.62 444.91 240.93 449.6 231.54 449.6C159.2 449.6 119 449.6 110.96 449.6C101.58 449.6 96.88 444.91 96.88 435.52C96.88 363.18 96.88 322.98 96.88 314.94C96.88 305.56 101.58 300.86 110.96 300.86C183.31 300.86 223.51 300.86 231.54 300.86Z" id="b6fKusZtUn"></path><path d="M171.26 373.39C180.39 373.39 187.82 365.96 187.82 356.82C187.82 347.69 180.39 340.25 171.26 340.25C162.12 340.25 154.69 347.69 154.69 356.82C154.69 365.96 162.12 373.39 171.26 373.39ZM204.39 410.21C204.39 408 204.39 406.78 204.39 406.53C204.39 392.32 192.83 380.76 178.62 380.76C177.15 380.76 165.36 380.76 163.89 380.76C149.68 380.76 138.12 392.32 138.12 406.53C138.12 406.78 138.12 408 138.12 410.21L200.71 410.21L204.39 410.21Z" id="az3PDAZvs"></path></defs><g><g><use xlink:href="#b6fKusZtUn" opacity="1" fill="#fde84d" fill-opacity="1"></use><g><use xlink:href="#b6fKusZtUn" opacity="1" fill-opacity="0" stroke="#000000" stroke-width="1" stroke-opacity="0"></use></g></g><g><use xlink:href="#az3PDAZvs" opacity="1" fill="#445e6b" fill-opacity="1"></use><g><use xlink:href="#az3PDAZvs" opacity="1" fill-opacity="0" stroke="#000000" stroke-width="1" stroke-opacity="0"></use></g></g></g></svg>