<?xml version="1.0" encoding="utf-8"?>
<svg viewBox="296.741 240.847 16.688 20" xmlns="http://www.w3.org/2000/svg">
  <g id="g-4" transform="matrix(1, 0, 0, 1, 295.100342, 240.847443)">
    <path style="stroke: none; fill-rule: nonzero; fill-opacity: 1; fill: rgb(68, 94, 107);" d="M 9.859375 9.632812 C 11.179688 9.632812 12.328125 9.160156 13.261719 8.222656 C 14.199219 7.285156 14.675781 6.140625 14.675781 4.816406 C 14.675781 3.492188 14.199219 2.347656 13.261719 1.410156 C 12.328125 0.476562 11.179688 0 9.859375 0 C 8.535156 0 7.386719 0.476562 6.453125 1.410156 C 5.515625 2.347656 5.039062 3.492188 5.039062 4.816406 C 5.039062 6.140625 5.515625 7.285156 6.453125 8.222656 C 7.386719 9.160156 8.535156 9.632812 9.859375 9.632812 Z M 9.859375 9.632812 "/>
    <path style="stroke: none; fill-rule: nonzero; fill-opacity: 1; fill: rgb(68, 94, 107);" d="M 18.285156 15.378906 C 18.257812 14.988281 18.203125 14.5625 18.125 14.117188 C 18.042969 13.664062 17.9375 13.234375 17.8125 12.84375 C 17.683594 12.441406 17.507812 12.042969 17.292969 11.660156 C 17.066406 11.261719 16.800781 10.917969 16.503906 10.632812 C 16.191406 10.335938 15.8125 10.097656 15.371094 9.921875 C 14.933594 9.75 14.449219 9.660156 13.925781 9.660156 C 13.722656 9.660156 13.527344 9.746094 13.144531 9.992188 C 12.910156 10.144531 12.636719 10.324219 12.328125 10.519531 C 12.066406 10.6875 11.710938 10.84375 11.273438 10.984375 C 10.847656 11.121094 10.410156 11.191406 9.984375 11.191406 C 9.554688 11.191406 9.121094 11.121094 8.691406 10.984375 C 8.253906 10.84375 7.898438 10.6875 7.636719 10.519531 C 7.335938 10.324219 7.058594 10.148438 6.820312 9.992188 C 6.441406 9.746094 6.242188 9.660156 6.039062 9.660156 C 5.519531 9.660156 5.03125 9.75 4.59375 9.921875 C 4.15625 10.097656 3.773438 10.335938 3.464844 10.632812 C 3.164062 10.917969 2.902344 11.261719 2.675781 11.660156 C 2.457031 12.042969 2.28125 12.441406 2.152344 12.84375 C 2.027344 13.234375 1.925781 13.664062 1.84375 14.117188 C 1.761719 14.5625 1.707031 14.988281 1.679688 15.378906 C 1.652344 15.761719 1.640625 16.160156 1.640625 16.558594 C 1.640625 17.605469 1.972656 18.449219 2.628906 19.074219 C 3.273438 19.6875 4.128906 20 5.167969 20 L 14.796875 20 C 15.839844 20 16.695312 19.6875 17.339844 19.074219 C 17.996094 18.449219 18.328125 17.605469 18.328125 16.558594 C 18.328125 16.15625 18.3125 15.761719 18.285156 15.378906 Z M 18.285156 15.378906 "/>
  </g>
</svg>