<?xml version="1.0" encoding="UTF-8" standalone="no"?>
<!DOCTYPE svg PUBLIC "-//W3C//DTD SVG 1.1//EN" "http://www.w3.org/Graphics/SVG/1.1/DTD/svg11.dtd">
<svg version="1.1" xmlns="http://www.w3.org/2000/svg" xmlns:xlink="http://www.w3.org/1999/xlink" preserveAspectRatio="xMidYMid meet" viewBox="101.26944 68.10464 152.73984000000002 152.73984000000002" width="100" height="100"><defs><path d="M116.35 217.84C106.96 217.84 102.27 213.15 102.27 203.76C102.27 131.42 102.27 91.22 102.27 83.18C102.27 73.8 106.96 69.1 116.35 69.1C188.7 69.1 228.89 69.1 236.93 69.1C246.32 69.1 251.01 73.8 251.01 83.18C251.01 155.53 251.01 195.73 251.01 203.76C251.01 213.15 246.32 217.84 236.93 217.84C164.58 217.84 124.39 217.84 116.35 217.84Z" id="a1RU74RwE5"></path><path d="M176.64 141.63C185.78 141.63 193.21 134.2 193.21 125.06C193.21 115.93 185.78 108.49 176.64 108.49C167.51 108.49 160.07 115.93 160.07 125.06C160.07 134.2 167.51 141.63 176.64 141.63ZM209.78 178.46C209.78 176.25 209.78 175.02 209.78 174.77C209.78 160.56 198.21 149 184.01 149C182.53 149 170.75 149 169.28 149C155.06 149 143.5 160.56 143.5 174.77C143.5 175.02 143.5 176.25 143.5 178.46L206.1 178.46L209.78 178.46Z" id="d3Jntb9479"></path></defs><g><g><use xlink:href="#a1RU74RwE5" opacity="1" fill="#445e6b" fill-opacity="1"></use><g><use xlink:href="#a1RU74RwE5" opacity="1" fill-opacity="0" stroke="#000000" stroke-width="1" stroke-opacity="0"></use></g></g><g><use xlink:href="#d3Jntb9479" opacity="1" fill="#fde84d" fill-opacity="1"></use><g><use xlink:href="#d3Jntb9479" opacity="1" fill-opacity="0" stroke="#000000" stroke-width="1" stroke-opacity="0"></use></g></g></g></svg>